<?xml version="1.0" standalone="no"?>
<!DOCTYPE svg PUBLIC "-//W3C//DTD SVG 20010904//EN"
 "http://www.w3.org/TR/2001/REC-SVG-20010904/DTD/svg10.dtd">
<svg version="1.0" xmlns="http://www.w3.org/2000/svg"
 width="2048.000000pt" height="2048.000000pt" viewBox="0 0 2048.000000 2048.000000"
 preserveAspectRatio="xMidYMid meet">

<g transform="translate(0.000000,2048.000000) scale(0.100000,-0.100000)"
fill="#000000" stroke="none">
<path d="M3101 16374 c-218 -59 -369 -294 -332 -518 29 -171 134 -300 303
-369 53 -22 59 -22 958 -27 l905 -5 57 -27 c32 -15 79 -47 106 -72 90 -85 81
-56 287 -921 14 -60 46 -193 70 -295 24 -102 90 -376 145 -610 55 -234 121
-508 145 -610 24 -102 92 -385 150 -630 58 -245 126 -528 150 -630 24 -102 94
-394 155 -650 61 -256 131 -548 155 -650 24 -102 74 -309 110 -460 36 -151 81
-340 100 -420 19 -80 59 -251 90 -380 31 -129 67 -282 81 -340 14 -58 68 -283
120 -500 103 -434 141 -593 208 -870 47 -198 74 -278 131 -391 20 -39 34 -73
33 -74 -2 -1 -30 -19 -63 -40 -179 -112 -331 -261 -451 -440 -134 -201 -210
-401 -245 -644 -19 -132 -6 -401 24 -531 73 -306 212 -549 442 -769 296 -283
681 -425 1104 -408 230 9 418 59 621 163 404 208 694 584 791 1027 57 260 39
569 -49 815 -24 68 -27 85 -16 89 18 7 3381 0 3387 -7 3 -3 -8 -45 -24 -94
-59 -178 -73 -273 -73 -481 0 -159 4 -207 23 -295 131 -613 576 -1060 1184
-1192 136 -30 444 -32 580 -5 303 61 581 209 792 421 454 458 571 1137 298
1718 l-46 98 -39 0 c-31 0 -46 7 -70 30 -30 31 -34 60 -14 125 4 13 -3 30 -19
50 l-25 30 0 -117 0 -118 -25 0 -25 0 0 129 c0 92 3 130 12 133 13 5 -68 90
-152 160 -187 155 -436 273 -672 319 -154 30 -155 30 -237 -49 l-71 -67 85
-87 c47 -49 84 -88 83 -89 -2 0 -27 -3 -56 -6 l-52 -4 -68 72 -67 72 -5 -69
-5 -69 -42 -3 -43 -3 0 165 0 166 -57 0 -58 0 31 -19 c45 -28 47 -35 14 -66
-27 -26 -30 -26 -51 -11 -13 9 -40 16 -59 16 -99 0 -111 -142 -15 -166 25 -6
51 2 86 28 14 9 23 7 48 -14 l30 -26 -25 -26 c-35 -34 -86 -49 -146 -44 -52 5
-89 27 -122 72 -16 21 -21 42 -21 94 0 73 18 107 73 144 27 18 25 18 -88 18
l-115 0 37 -30 c96 -79 82 -227 -28 -280 -130 -64 -270 37 -249 178 6 38 15
55 51 90 l44 42 -54 0 -55 0 -3 -37 -3 -38 -52 -3 -53 -3 0 -73 c0 -81 9 -96
56 -96 34 0 44 -13 44 -56 0 -22 -4 -24 -46 -24 -54 0 -103 21 -124 52 -8 14
-16 60 -20 113 l-5 89 -40 1 c-39 0 -40 1 -43 38 l-3 37 -95 0 c-52 0 -94 -3
-94 -6 0 -3 33 -20 73 -39 95 -43 127 -80 127 -145 0 -136 -176 -186 -305 -87
-20 15 -20 16 8 45 l29 30 41 -24 c23 -13 53 -24 67 -24 53 0 86 49 61 89 -5
8 -47 33 -92 55 -65 32 -87 48 -99 73 -10 22 -22 33 -37 33 -23 0 -23 -1 -23
-160 l0 -160 -40 0 -40 0 0 99 c0 54 -3 126 -6 160 l-7 61 -2061 0 c-2273 0
-2114 -4 -2239 62 -33 18 -86 58 -118 91 -91 91 -118 157 -194 477 -36 151
-68 283 -71 293 -5 16 169 17 3556 17 4017 0 3642 -8 3773 80 73 49 127 110
166 187 24 48 21 38 496 2033 76 316 155 649 177 740 21 91 59 248 83 350 24
102 71 300 105 440 34 140 79 329 100 420 21 91 91 383 155 650 234 978 218
904 213 1008 -5 81 -10 102 -41 165 -20 40 -51 90 -68 111 -44 53 -139 112
-217 136 -64 20 -105 20 -5038 20 l-4974 0 -5 23 c-3 12 -28 117 -55 232 -28
116 -79 334 -115 485 -79 332 -102 404 -171 540 -176 346 -484 584 -884 683
-83 20 -108 21 -1025 23 -802 3 -948 1 -994 -12z m5887 -3176 c12 -150 42
-527 67 -838 24 -311 47 -586 49 -612 l5 -48 -1058 0 -1058 0 -36 158 c-20 86
-71 299 -112 472 -42 173 -93 389 -115 480 -21 91 -64 270 -94 399 -31 129
-56 240 -56 248 0 11 202 13 1193 13 l1193 0 22 -272z m3318 225 c-3 -27 -15
-163 -26 -303 -11 -140 -40 -510 -65 -823 -25 -312 -45 -574 -45 -582 0 -13
-132 -15 -1065 -15 -904 0 -1065 2 -1065 14 0 20 -128 1651 -134 1709 l-5 47
1205 0 1206 0 -6 -47z m3324 32 c0 -14 -52 -234 -271 -1150 -38 -159 -86 -361
-106 -447 l-36 -158 -1059 0 -1058 0 5 43 c3 23 28 328 55 677 28 349 58 728
67 843 l17 207 1193 0 c1065 0 1193 -2 1193 -15z m-6452 -2700 c3 -2 11 -78
18 -167 44 -547 124 -1560 124 -1577 l0 -21 -839 0 -839 0 -46 188 c-24 103
-54 225 -65 272 -97 409 -201 847 -251 1053 -33 136 -60 249 -60 252 0 2 8 5
17 7 27 5 1936 -1 1941 -7z m2912 -15 c0 -14 -20 -277 -45 -585 -24 -308 -54
-681 -65 -830 -12 -148 -23 -285 -26 -302 l-5 -33 -844 0 -844 0 -5 33 c-3 17
-10 95 -16 172 -5 77 -35 452 -65 833 -30 381 -55 702 -55 715 l0 22 985 0
985 0 0 -25z m2894 21 c4 -6 -297 -1292 -393 -1681 -5 -19 -12 -47 -15 -62
l-6 -28 -840 0 -840 0 0 23 c0 12 13 189 30 392 16 204 45 573 65 820 19 248
37 469 40 492 l6 43 967 3 c532 1 970 3 974 5 4 1 9 -2 12 -7z m-1634 -4281
c0 -123 -1 -130 -20 -130 -11 0 -20 5 -20 10 0 7 -6 7 -19 0 -34 -18 -80 -12
-106 15 -19 18 -25 35 -25 70 0 35 6 52 25 70 26 27 72 33 106 15 17 -10 19
-7 19 35 0 38 3 45 20 45 19 0 20 -7 20 -130z m95 105 c0 -23 -34 -33 -45 -14
-13 20 1 40 24 37 13 -2 21 -10 21 -23z m1245 -105 c0 -123 -1 -130 -20 -130
-19 0 -20 7 -20 130 0 123 1 130 20 130 19 0 20 -7 20 -130z m580 110 c0 -15
-7 -20 -25 -20 -16 0 -25 -6 -25 -15 0 -8 9 -15 20 -15 11 0 20 -7 20 -15 0
-8 -9 -15 -20 -15 -18 0 -20 -7 -20 -80 0 -79 0 -80 -25 -80 -25 0 -25 1 -25
80 0 64 -3 80 -15 80 -8 0 -15 7 -15 15 0 8 7 15 15 15 8 0 15 6 15 13 0 30
31 57 66 57 27 0 34 -4 34 -20z m-2526 -21 c14 -11 26 -24 26 -29 0 -16 -32
-20 -53 -5 -67 47 -141 -29 -102 -104 20 -40 58 -50 102 -26 27 15 36 16 46 6
21 -21 -35 -61 -86 -61 -91 0 -144 73 -118 160 22 74 125 106 185 59z m806 -4
c0 -21 5 -25 30 -25 20 0 30 -5 30 -15 0 -10 -10 -15 -30 -15 -30 0 -30 0 -30
-59 0 -58 1 -60 28 -63 42 -5 35 -32 -10 -36 -49 -4 -68 23 -68 100 0 45 -3
58 -15 58 -8 0 -15 7 -15 15 0 8 7 15 15 15 9 0 15 9 15 25 0 20 5 25 25 25
20 0 25 -5 25 -25z m480 5 c0 -18 -7 -20 -65 -20 l-65 0 0 -30 c0 -30 1 -30
55 -30 48 0 55 -2 55 -20 0 -18 -7 -20 -55 -20 l-55 0 0 -50 c0 -47 -2 -50
-25 -50 l-25 0 0 120 0 120 90 0 c83 0 90 -1 90 -20z m-1180 -42 c0 -9 3 -9
12 0 16 16 68 16 68 0 0 -21 -17 -41 -29 -34 -5 4 -19 -2 -31 -14 -15 -15 -20
-33 -20 -75 0 -51 -2 -55 -23 -55 -22 0 -23 3 -23 95 0 92 1 95 23 95 13 0 23
-5 23 -12z m249 -5 c12 -10 26 -35 30 -55 l9 -38 -74 0 c-77 0 -94 -11 -48
-32 19 -9 33 -9 56 0 24 9 35 9 46 0 23 -20 -21 -48 -75 -48 -36 0 -50 6 -75
30 -27 28 -30 36 -25 73 7 54 43 87 96 87 22 0 48 -8 60 -17z m341 -78 c0 -88
-1 -95 -20 -95 -19 0 -20 7 -20 95 0 88 1 95 20 95 19 0 20 -7 20 -95z m257
79 c3 -8 -2 -23 -11 -32 -15 -15 -17 -15 -32 0 -21 21 -11 48 16 48 11 0 23
-7 27 -16z m510 1 c34 -24 47 -76 29 -118 -8 -20 -23 -40 -34 -46 -27 -14 -74
-14 -105 0 -58 26 -62 124 -8 166 22 17 92 16 118 -2z m114 -27 c1 -24 1 -46
0 -50 -3 -21 21 -58 38 -58 31 0 45 27 44 91 -1 56 1 59 23 59 24 0 24 -2 24
-95 l0 -95 -26 0 c-16 0 -23 4 -18 11 5 8 1 8 -14 0 -11 -6 -34 -11 -51 -11
-45 0 -61 30 -61 117 0 66 2 73 20 73 17 0 20 -7 21 -42z m219 32 c0 -7 6 -7
19 0 24 12 61 13 61 1 0 -21 -12 -39 -24 -35 -28 11 -49 -23 -54 -85 -4 -51
-7 -61 -23 -61 -17 0 -19 9 -19 95 0 88 1 95 20 95 11 0 20 -5 20 -10z m341
-3 c21 -16 39 -51 39 -76 0 -19 -6 -21 -70 -21 -38 0 -70 -4 -70 -8 0 -28 54
-41 90 -22 13 7 21 5 30 -6 19 -22 -15 -43 -73 -44 -65 0 -97 30 -97 93 0 62
33 97 92 97 24 0 50 -6 59 -13z m209 -7 c15 -15 20 -33 20 -71 0 -32 6 -56 15
-66 8 -8 13 -19 10 -24 -8 -12 -49 -11 -62 2 -8 8 -13 8 -17 0 -11 -17 -77
-13 -98 6 -42 38 -12 86 60 98 57 9 49 30 -11 30 -54 0 -69 11 -43 31 30 21
102 18 126 -6z m-1400 -125 c17 -20 5 -45 -20 -45 -11 0 -23 7 -26 15 -6 15
11 45 26 45 4 0 13 -7 20 -15z m-5617 -220 c44 -7 112 -29 154 -49 144 -69
277 -234 312 -386 16 -68 13 -214 -5 -284 -69 -266 -323 -450 -599 -433 -146
9 -264 63 -373 169 -111 109 -162 225 -170 383 -8 178 44 313 172 440 82 82
185 138 293 160 88 17 121 17 216 0z m6189 -1 c25 -5 35 -11 31 -20 -3 -8 -13
-15 -22 -16 -9 -1 29 -4 84 -7 l100 -6 68 -48 c155 -111 241 -279 241 -472 0
-256 -144 -460 -392 -553 -56 -21 -85 -25 -177 -26 -179 -2 -299 47 -421 169
-214 215 -230 536 -40 777 120 152 335 234 528 202z"/>
<path d="M13222 6488 c-15 -15 -16 -70 0 -86 20 -20 56 -14 74 12 13 22 14 29
2 53 -15 31 -55 42 -76 21z"/>
<path d="M13000 6480 c-10 -19 -8 -20 40 -20 48 0 50 1 40 20 -7 13 -21 20
-40 20 -19 0 -33 -7 -40 -20z"/>
<path d="M14112 6488 c-17 -17 -15 -73 2 -88 23 -18 59 -8 75 21 13 24 13 29
-2 53 -19 28 -54 35 -75 14z"/>
<path d="M14792 6488 c-21 -21 -13 -28 33 -28 25 0 45 4 45 8 0 15 -24 32 -45
32 -12 0 -26 -5 -33 -12z"/>
<path d="M15020 6431 c-14 -4 -26 -15 -28 -25 -3 -14 2 -17 30 -14 25 2 34 8
36 26 4 23 1 24 -38 13z"/>
<path d="M18130 7495 c-276 -57 -479 -170 -650 -361 -68 -77 -164 -229 -155
-245 4 -5 2 -9 -4 -9 -6 0 -16 -18 -22 -40 -11 -37 -10 -42 17 -77 15 -21 32
-39 36 -41 4 -2 8 -9 8 -16 0 -14 83 -46 120 -46 31 0 120 31 120 42 0 5 19
28 43 52 44 46 167 207 167 220 0 4 11 17 25 30 14 13 25 32 25 42 0 11 5 26
11 34 8 11 9 5 5 -25 -4 -27 -2 -35 4 -25 5 8 10 24 10 34 0 11 3 16 7 12 4
-3 6 -50 5 -104 0 -53 2 -87 6 -75 9 28 54 63 82 63 17 0 20 4 16 23 -3 12 -3
16 0 10 3 -7 15 -13 27 -13 18 0 8 13 -48 64 -38 35 -73 62 -77 59 -5 -2 -8 1
-8 6 0 6 7 11 16 11 9 0 29 11 46 25 40 34 71 32 245 -10 137 -34 148 -35 236
-26 50 5 93 14 95 20 2 6 8 11 14 11 6 0 17 8 24 18 12 15 15 15 24 2 13 -20
13 -4 0 20 -9 16 -8 18 5 14 11 -5 13 -2 9 10 -4 9 0 18 9 22 9 3 21 29 28 57
6 29 14 56 17 61 2 4 5 30 6 56 l1 48 -65 20 c-36 12 -92 26 -124 31 -81 15
-276 12 -356 -4z"/>
<path d="M14090 7068 l0 -52 50 49 c28 27 50 51 50 52 0 2 -22 3 -50 3 l-50 0
0 -52z"/>
<path d="M13391 7014 c-30 -38 -27 -80 8 -115 36 -35 70 -37 108 -5 37 32 39
99 4 127 -36 29 -95 25 -120 -7z"/>
<path d="M15420 6446 c0 -27 23 -56 45 -56 11 0 9 8 -6 35 -27 46 -39 52 -39
21z"/>
</g>
</svg>
