<?xml version="1.0" standalone="no"?>
<!DOCTYPE svg PUBLIC "-//W3C//DTD SVG 20010904//EN"
 "http://www.w3.org/TR/2001/REC-SVG-20010904/DTD/svg10.dtd">
<svg version="1.0" xmlns="http://www.w3.org/2000/svg"
 width="1200.000000pt" height="628.000000pt" viewBox="0 0 1200.000000 628.000000"
 preserveAspectRatio="xMidYMid meet">

<g transform="translate(0.000000,628.000000) scale(0.100000,-0.100000)"
fill="#000000" stroke="none">
<path d="M2996 3997 c-56 -32 -79 -67 -84 -132 -4 -48 -1 -59 23 -91 15 -20
48 -45 73 -56 145 -65 290 106 196 230 -56 73 -134 91 -208 49z"/>
<path d="M8305 4000 c-58 -30 -79 -63 -83 -136 -4 -59 -3 -63 32 -102 70 -77
185 -76 251 1 29 34 35 48 35 86 0 61 -34 119 -85 148 -50 28 -98 29 -150 3z"/>
<path d="M3340 3355 l0 -655 110 0 110 0 0 655 0 655 -110 0 -110 0 0 -655z"/>
<path d="M3793 3990 c8 -12 57 -71 108 -132 206 -245 202 -240 188 -248 -7 -5
-29 -11 -48 -15 -63 -12 -159 -64 -218 -119 -156 -145 -195 -345 -106 -535 33
-70 150 -189 216 -219 200 -93 414 -58 566 91 128 126 172 294 121 458 -27 86
-38 102 -320 443 l-244 296 -139 0 c-137 0 -138 0 -124 -20z m478 -607 c226
-100 200 -420 -40 -490 -171 -49 -341 76 -341 252 0 194 199 318 381 238z"/>
<path d="M4750 3543 c0 -506 2 -523 55 -622 187 -344 696 -330 871 24 33 68
38 87 42 167 8 152 -25 250 -116 349 -143 156 -397 206 -575 114 -27 -14 -53
-25 -58 -25 -5 0 -9 99 -9 230 l0 230 -105 0 -105 0 0 -467z m604 -158 c49
-23 100 -74 127 -126 31 -58 32 -154 2 -219 -44 -99 -134 -155 -248 -154 -160
1 -270 109 -269 264 1 121 70 210 194 251 37 13 154 3 194 -16z"/>
<path d="M6188 3604 c-114 -27 -216 -98 -284 -195 -56 -79 -78 -154 -78 -259
1 -272 206 -480 473 -480 139 0 269 57 361 157 49 53 51 58 34 70 -11 8 -28
21 -39 31 -50 42 -104 82 -111 82 -5 0 -21 -15 -36 -34 -15 -19 -53 -47 -85
-62 -108 -51 -237 -29 -315 53 -25 26 -58 90 -58 113 0 7 118 10 355 10 l355
0 0 68 c0 37 -9 101 -21 142 -66 241 -294 367 -551 304z m189 -206 c50 -12
133 -82 133 -111 0 -15 -21 -17 -215 -17 -118 0 -215 3 -215 8 0 14 36 61 62
82 60 46 147 61 235 38z"/>
<path d="M8960 3606 c-165 -46 -287 -159 -340 -317 -19 -54 -21 -80 -18 -169
4 -96 7 -112 41 -181 82 -171 239 -269 432 -269 127 0 239 45 333 133 83 79
83 77 -1 145 l-73 59 -34 -35 c-65 -69 -185 -104 -282 -82 -93 21 -164 85
-189 172 l-8 28 355 0 354 0 0 73 c0 272 -188 460 -456 456 -38 0 -89 -6 -114
-13z m194 -207 c53 -15 89 -43 115 -90 l22 -39 -221 0 -221 0 16 30 c44 86
175 131 289 99z"/>
<path d="M9935 3614 c-155 -33 -233 -82 -282 -178 -22 -43 -25 -59 -21 -122
11 -173 102 -239 363 -264 184 -17 225 -33 225 -83 0 -64 -89 -103 -218 -95
-91 5 -168 36 -231 94 l-42 37 -65 -64 c-35 -35 -64 -71 -64 -80 0 -22 97
-100 168 -134 144 -71 362 -72 502 -2 67 33 132 103 154 165 22 65 17 142 -16
205 -48 96 -118 126 -356 156 -169 21 -202 34 -202 79 0 51 58 89 148 98 79 9
159 -15 243 -72 36 -24 69 -44 72 -44 9 0 117 135 117 147 0 13 -87 77 -145
106 -94 46 -256 70 -350 51z"/>
<path d="M1442 3583 c5 -13 84 -211 194 -493 57 -146 116 -293 130 -328 l27
-63 76 3 76 3 46 120 c80 208 151 380 159 389 4 4 11 -3 15 -15 4 -13 20 -53
35 -89 15 -36 57 -143 94 -237 l68 -173 76 0 77 0 42 108 c23 59 80 206 128
327 47 121 104 265 125 320 21 55 42 108 45 118 7 16 -1 17 -111 15 l-118 -3
-98 -245 c-53 -135 -98 -247 -98 -250 -1 -7 -38 81 -125 303 l-78 198 -75 -3
-76 -3 -69 -170 c-37 -93 -80 -203 -95 -243 -15 -39 -31 -71 -36 -69 -4 1 -51
112 -104 245 l-95 242 -119 0 c-66 0 -118 -3 -116 -7z"/>
<path d="M2965 3145 l0 -445 108 0 107 0 0 445 0 445 -107 0 -108 0 0 -445z"/>
<path d="M6872 3148 l3 -443 107 -3 107 -3 3 213 c3 210 3 214 31 270 50 101
148 163 289 182 l78 10 0 108 0 108 -33 0 c-122 0 -236 -49 -313 -134 l-54
-59 0 96 0 97 -110 0 -110 0 2 -442z"/>
<path d="M7562 3148 l3 -443 107 -3 107 -3 3 218 c3 205 4 221 26 261 58 109
147 166 288 185 l85 12 -3 105 -3 105 -36 3 c-52 4 -163 -24 -215 -54 -24 -14
-67 -51 -94 -82 l-50 -56 0 97 0 97 -110 0 -110 0 2 -442z"/>
<path d="M8270 3145 l0 -446 108 3 107 3 0 440 0 440 -107 3 -108 3 0 -446z"/>
</g>
</svg>
